<svg width="24" height="26" viewBox="0 0 24 26" fill="none" xmlns="http://www.w3.org/2000/svg">
<path d="M11.1721 15.5503L3.20714 9.36544C3.07418 9.26224 3 9.12513 3 8.98256C3 8.83998 3.07418 8.70288 3.20714 8.59968L3.21614 8.59302C3.2806 8.54282 3.35819 8.50285 3.44419 8.47553C3.53019 8.44822 3.6228 8.43413 3.71639 8.43413C3.80998 8.43413 3.90259 8.44822 3.98859 8.47553C4.07459 8.50285 4.15218 8.54282 4.21664 8.59302L11.7166 14.4172L19.2136 8.59302C19.2781 8.54282 19.3557 8.50285 19.4417 8.47553C19.5277 8.44822 19.6203 8.43413 19.7139 8.43413C19.8075 8.43413 19.9001 8.44822 19.9861 8.47553C20.0721 8.50285 20.1497 8.54282 20.2141 8.59302L20.2231 8.59968C20.3561 8.70288 20.4303 8.83998 20.4303 8.98256C20.4303 9.12513 20.3561 9.26224 20.2231 9.36544L12.2581 15.5503C12.1881 15.6047 12.1039 15.648 12.0105 15.6776C11.9172 15.7072 11.8167 15.7224 11.7151 15.7224C11.6136 15.7224 11.5131 15.7072 11.4198 15.6776C11.3264 15.648 11.2422 15.6047 11.1721 15.5503Z" fill="black"/>
</svg>
