<svg width="50" height="50" viewBox="0 0 50 50" fill="none" xmlns="http://www.w3.org/2000/svg">
<g clip-path="url(#clip0_1133_4662)">
<path d="M26.4709 35.81C26.4709 35.81 26.3909 35.85 26.3509 35.85C26.0309 35.88 25.6809 35.93 25.3909 35.77C25.1409 35.63 24.9309 35.37 24.8709 35.09C24.7609 34.59 24.9009 34.09 25.0509 33.61C25.2309 33.04 25.3509 32.45 25.4309 31.86C25.5109 31.27 25.6109 30.63 25.6209 30.01C25.6209 29.89 25.6209 29.77 25.6209 29.66C25.5909 28.75 25.0109 28.25 24.2409 28.18C23.4209 28.11 22.3009 28.74 22.1009 29.45C22.0509 29.63 22.1709 29.89 22.2809 30.07C22.7309 30.84 22.8809 31.65 22.5109 32.46C22.3809 32.74 21.9409 33.1 21.7209 33.06C21.4309 32.99 21.0409 32.59 21.0109 32.29C20.9409 31.64 20.9909 30.94 21.1309 30.3C21.2309 29.84 21.1109 29.67 20.7309 29.52C19.4109 29 17.8009 29.67 17.2209 30.98C15.9909 33.78 17.5809 37.09 20.6709 38C24.1609 39.03 27.3509 38.33 30.1409 36.04C31.5209 34.91 32.7308 33.58 34.0308 32.36C34.6708 31.76 35.3208 31.15 36.0508 30.67C37.0408 30.02 37.8008 30.22 38.5308 31.15C38.7708 31.46 38.9909 31.79 39.2309 32.11C39.9409 33.07 40.9009 33.55 42.0909 33.56C42.8409 33.56 42.9409 33.73 42.6809 34.44C42.2309 35.69 40.8009 36.55 39.2409 36.41C38.5509 36.35 37.8708 36.16 37.2108 35.97C36.0908 35.65 35.6608 35.77 35.0308 36.74C34.5108 37.54 34.0908 38.4 33.5508 39.18C30.7009 43.31 25.5209 45.4 20.7409 44.26C17.1309 43.4 14.8409 40.99 13.4709 37.65C12.1609 34.45 12.0509 31.1 12.5109 27.72C12.6909 26.41 12.9709 25.12 13.2809 23.83C13.3909 23.38 13.3109 23.13 12.9809 22.82C10.6909 20.67 9.53085 18.02 9.58085 14.88C9.66085 10.26 12.9509 6.8 17.3609 6.67C21.0709 6.56 24.3809 9.46 24.7509 13.15C24.8409 14.05 24.8209 14.96 24.9409 15.86C25.0009 16.29 25.1709 16.77 25.4609 17.08C26.0709 17.74 26.3009 18.43 26.0709 19.31C25.9509 19.78 25.8709 20.27 25.8409 20.75C25.7209 22.56 24.8709 23.86 23.2109 24.61C23.0109 24.7 22.8209 24.81 22.6609 25.05C23.1109 25.03 23.5509 25.02 24.0009 24.99C24.7409 24.94 25.3909 25.14 25.9009 25.68C26.4909 26.29 27.1109 26.28 27.8609 25.97C28.5609 25.69 29.3209 25.5 30.0709 25.41C32.0609 25.19 33.2409 26.01 33.8409 27.99C34.1009 27.84 34.3509 27.71 34.5909 27.55C36.9609 26 39.1908 24.31 40.4608 21.67C42.2108 18.04 42.8709 14.32 41.5009 10.41C40.6009 7.84 38.8508 5.97 36.5108 4.65C24.7608 -1.99 9.88085 2.69 3.97085 14.84C-2.58915 28.32 5.28085 44.61 19.9309 47.84C32.2409 50.56 44.5208 43.1 47.6708 30.91C48.4508 27.9 48.6709 24.75 48.2209 21.67C47.9909 20.13 47.6009 18.61 47.0809 17.15C46.8309 16.45 46.5609 15.73 46.2409 15.06C45.9609 14.48 45.4208 13.79 45.5308 13.11C45.8908 13.11 46.1609 13.62 46.3109 13.92C47.5109 16.32 48.3809 18.86 48.7709 21.53C50.3509 32.33 44.3809 42.92 34.3409 47.11C21.1009 52.64 6.07085 45.46 2.03085 31.65C0.650852 26.93 0.650852 22.15 2.30085 17.53C5.52085 8.45 11.9709 2.93 21.5209 1.33C27.2909 0.370002 32.7808 1.52 37.7108 4.72C41.1908 6.97 42.8209 10.35 42.7709 14.48C42.7009 19.78 40.7009 24.12 36.2009 27.15C36.0309 27.27 35.8608 27.4 35.6908 27.51C34.6008 28.2 33.5908 28.86 33.2608 30.32C32.9908 31.49 32.1209 32.43 31.0509 33.09C30.5309 33.41 29.9809 33.59 29.4609 33.09C29.0209 32.66 28.9409 31.91 29.4809 31.39C30.3509 30.54 31.3609 29.83 32.2909 29.04C32.6309 28.75 33.2509 28.71 33.1809 28.03C33.1109 27.27 32.7609 26.7 32.1009 26.35C31.0709 25.8 29.9909 25.88 28.9109 26.18C28.6409 26.25 28.3809 26.36 28.1309 26.48C27.1509 26.95 26.2609 26.93 25.4609 26.09C24.9509 25.55 24.2809 25.48 23.5909 25.57C23.0409 25.64 22.5009 25.79 21.9409 25.83C21.7309 25.85 21.3909 25.73 21.3109 25.57C21.2409 25.43 21.3609 25.05 21.5209 24.94C21.9609 24.61 22.4509 24.32 22.9509 24.09C24.4309 23.41 25.1909 22.27 25.2509 20.65C25.2509 20.44 25.2509 20.22 25.3209 20.03C25.6909 18.91 25.6709 17.92 24.6609 17.08C24.4109 16.87 24.3709 16.36 24.3309 15.99C24.2109 14.82 24.2709 13.6 24.0109 12.46C23.0409 8.15 18.3609 6.05 14.2909 8.04C11.3509 9.47 9.68085 12.82 10.1809 16.26C10.5509 18.85 11.6809 21.02 13.6909 22.71C13.9809 22.95 14.0309 23.16 13.9309 23.54C13.0009 26.88 12.5409 30.27 13.0109 33.73C13.4509 37.01 14.6409 39.96 17.3309 42.03C20.7009 44.61 24.3909 44.55 28.1309 42.93C30.6609 41.83 32.5508 39.99 33.8708 37.56C34.1508 37.05 34.4609 36.56 34.7909 36.09C35.3609 35.29 36.1309 35.08 37.0609 35.37C37.6609 35.55 38.2608 35.75 38.8708 35.86C40.2608 36.11 41.6109 35.41 42.0009 34.28C41.9509 34.25 41.8909 34.18 41.8409 34.18C40.1609 34.1 39.0908 33.12 38.2108 31.81C37.4708 30.71 36.9108 30.63 35.8708 31.49C35.0508 32.16 34.2908 32.93 33.5508 33.69C31.8608 35.42 30.1409 37.15 27.8909 38.14C24.7309 39.52 21.5509 39.57 18.5809 37.63C16.5509 36.3 15.7309 33.65 16.4409 31.34C17.1109 29.14 19.0609 28.31 21.4409 29.24C21.6909 28.96 21.9209 28.64 22.2109 28.38C22.9709 27.7 23.8509 27.41 24.8509 27.78C25.8009 28.13 26.2409 28.94 26.2009 29.86C26.1509 31.1 25.8909 32.33 25.7209 33.57C25.7209 33.64 25.6909 33.71 25.6809 33.77C25.6209 34.13 25.5509 34.5 25.6009 34.86C25.6609 35.25 25.9009 35.54 26.2509 35.71C26.3009 35.73 26.3509 35.75 26.4009 35.78C26.4409 35.8 26.4709 35.82 26.4709 35.83C26.4709 35.83 26.4709 35.84 26.4709 35.85V35.81ZM32.9909 29.51C32.9209 29.45 32.8509 29.39 32.7909 29.32C31.9309 30 31.0709 30.68 30.2209 31.38C30.0509 31.52 29.8809 31.73 29.8309 31.94C29.7809 32.16 29.7809 32.49 29.9109 32.63C30.0209 32.75 30.4009 32.78 30.5709 32.68C31.8309 31.97 32.5509 30.84 32.9909 29.51ZM21.6909 32.53C22.2409 31.92 22.2409 31.23 21.6709 30.4C21.5009 31.16 21.2809 31.82 21.6909 32.53Z" fill="black" stroke="black" stroke-width="0.5"/>
</g>
<defs>
<clipPath id="clip0_1133_4662">
<rect width="50" height="50" fill="white"/>
</clipPath>
</defs>
</svg>
